<svg width="32" height="30" viewBox="0 0 32 30" fill="none" xmlns="http://www.w3.org/2000/svg">
<path d="M23.9905 14.3243L22.8479 9.71187C22.7637 9.37494 22.5019 9.11131 22.1649 9.028L19.8046 8.4375L22.1649 7.847C22.4981 7.76369 22.7599 7.50456 22.846 7.17131L23.1646 5.9335C23.1847 5.8575 23.1939 5.75956 23.1939 5.68081C23.1939 5.5105 23.1482 5.343 23.0584 5.1965C21.7859 3.08531 19.8743 1.875 17.8125 1.875C16.0565 1.875 15.1739 2.4875 14.4653 2.98006C13.8464 3.41031 13.3557 3.75 12.1875 3.75C11.0193 3.75 10.5286 3.41031 9.90969 2.98006C9.20106 2.4875 8.3185 1.875 6.5625 1.875C2.94431 1.875 0 5.65981 0 10.3125C0 19.8376 5.52431 29.1531 5.75869 29.545C5.92712 29.8269 6.23294 30 6.5625 30C9.20656 30 9.80894 26.9833 10.2942 24.559C10.7556 22.2556 11.1602 20.625 12.1875 20.625C13.2148 20.625 13.6194 22.2556 14.0808 24.559C14.5661 26.9833 15.1684 30 17.8125 30C18.1421 30 18.4461 29.8269 18.6163 29.545C18.7847 29.263 22.7746 22.5476 24.0069 14.6951C24.0252 14.5716 24.0197 14.4452 23.9905 14.3243Z" fill="url(#paint0_linear_1_151)"/>
<path d="M31.2896 7.52837L25.7099 6.16512L24.3476 0.710438C24.2432 0.293 23.8678 0 23.4375 0C23.0072 0 22.6318 0.293 22.5274 0.711375L21.1688 6.16331L15.7104 7.52837C15.293 7.63181 15 8.00719 15 8.4375C15 8.86781 15.293 9.24319 15.7104 9.34663L21.1633 10.7099L22.5292 16.171C22.6355 16.5857 23.0091 16.875 23.4375 16.875H23.4412C23.8696 16.8732 24.2432 16.5811 24.3476 16.1646L25.7099 10.7099L31.2896 9.34663C31.7071 9.24319 32 8.86781 32 8.4375C32 8.00719 31.7071 7.63181 31.2896 7.52837Z" fill="#7B55EC"/>
<defs>
<linearGradient id="paint0_linear_1_151" x1="12.0087" y1="30" x2="12.0087" y2="1.875" gradientUnits="userSpaceOnUse">
<stop stop-color="#ADDCFF"/>
<stop offset="0.5028" stop-color="#EAF6FF"/>
<stop offset="1" stop-color="#EAF6FF"/>
</linearGradient>
</defs>
</svg>
