<svg width="66" height="66" viewBox="0 0 66 66" fill="none" xmlns="http://www.w3.org/2000/svg">
<rect x="1" y="1" width="64" height="64" rx="16" fill="#583FBC" fill-opacity="0.2" stroke="url(#paint0_linear_240_127)"/>
<rect x="9" y="9" width="48" height="48" rx="16" fill="#583FBC"/>
<path d="M30.1348 41.7733V38.7156C30.1348 37.9351 30.7722 37.3023 31.5584 37.3023H34.4326C34.8102 37.3023 35.1723 37.4512 35.4393 37.7163C35.7063 37.9813 35.8563 38.3408 35.8563 38.7156V41.7733C35.8539 42.0978 35.9821 42.4099 36.2124 42.6402C36.4427 42.8705 36.7561 43 37.0829 43H39.0438C39.9596 43.0023 40.8388 42.6428 41.4872 42.0008C42.1356 41.3588 42.5 40.487 42.5 39.5778V30.8669C42.5 30.1325 42.1721 29.4358 41.6046 28.9647L34.934 23.6759C33.7737 22.7486 32.1111 22.7785 30.9854 23.747L24.467 28.9647C23.8727 29.422 23.5176 30.1206 23.5 30.8669V39.5689C23.5 41.4639 25.0474 43 26.9562 43H28.8723C29.5512 43 30.103 42.4562 30.1079 41.7822L30.1348 41.7733Z" fill="white"/>
<defs>
<linearGradient id="paint0_linear_240_127" x1="1" y1="1" x2="65" y2="65" gradientUnits="userSpaceOnUse">
<stop stop-color="#583FBC"/>
<stop offset="1" stop-color="#583FBC" stop-opacity="0"/>
</linearGradient>
</defs>
</svg>
